# xmcd
#
# Track frame offsets:
#	150
#	14205
#	29577
#	43805
#	57125
#	74310
#	84657
#	97792
#	115417
#	128930
#	141690
#	154655
#
# Disc length: 2204 seconds
#
# Revision: 1
# Processed by: cddbd v1.5.1PL2 Copyright (c) Steve Scherf et al.
# Submitted via: audiograbber 1.83.01
#
DISCID=af089a0c
DTITLE=Wildwood Valley Boys - Daylight's Burnin'
DYEAR=2006
DGENRE=Bluegrass
TTITLE0=Daylight's Burnin'
TTITLE1=Silver Ghost
TTITLE2=North of the Carolinas
TTITLE3=I Aint' Leavin'
TTITLE4=Sweet Maggie Belle
TTITLE5=I'll Cry Like a Baby
TTITLE6=What Happened to Ann
TTITLE7=Boilermaker
TTITLE8=Cousin Russell
TTITLE9=When the Warden Turns the Key
TTITLE10=Feeling Blue
TTITLE11=Old Granddad
EXTD=
EXTT0=
EXTT1=
EXTT2=
EXTT3=
EXTT4=
EXTT5=
EXTT6=
EXTT7=
EXTT8=
EXTT9=
EXTT10=
EXTT11=
PLAYORDER=
